<svg xmlns="http://www.w3.org/2000/svg" width="96" height="96" viewBox="0 0 24 24" fill="currentColor">
  <path d="M12 .5a12 12 0 00-3.79 23.4c.6.11.82-.26.82-.58V21.2c-3.34.73-4.04-1.61-4.04-1.61-.55-1.38-1.35-1.75-1.35-1.75-1.1-.75.08-.73.08-.73 1.22.09 1.86 1.25 1.86 1.25 1.08 1.85 2.84 1.31 3.53 1 .11-.8.42-1.31.76-1.61-2.66-.3-5.47-1.33-5.47-5.9 0-1.3.47-2.36 1.24-3.19-.12-.3-.54-1.52.12-3.17 0 0 1.01-.32 3.3 1.22a11.5 11.5 0 016 0c2.3-1.54 3.3-1.22 3.3-1.22.66 1.65.24 2.87.12 3.17.77.83 1.24 1.9 1.24 3.19 0 4.58-2.81 5.6-5.48 5.89.43.37.81 1.1.81 2.22v3.29c0 .32.21.7.82.58A12 12 0 0012 .5z"/>
</svg>