<svg xmlns="http://www.w3.org/2000/svg" width="96" height="96" viewBox="0 0 24 24" fill="currentColor">
  <path d="M20.447 20.452H17.2v-5.569c0-1.328-.027-3.036-1.852-3.036-1.853 0-2.136 1.447-2.136 2.943v5.662H9.063V9h3.123v1.561h.045c.435-.824 1.498-1.694 3.079-1.694 3.295 0 3.903 2.17 3.903 4.995v6.59zM5.337 7.433A1.81 1.81 0 013.52 5.62c0-1.003.81-1.814 1.816-1.814 1.004 0 1.816.811 1.816 1.814 0 1.004-.812 1.814-1.815 1.814zM6.756 20.452H3.92V9h2.837v11.452zM22.225 0H1.771C.792 0 0 .774 0 1.729v20.542C0 23.226.792 24 1.77 24h20.452C23.2 24 24 23.226 24 22.271V1.729C24 .774 23.2 0 22.225 0z"/>
</svg>